<svg id="Capa_1" enable-background="new 0 0 512 512" height="512" viewBox="0 0 512 512" width="512" xmlns="http://www.w3.org/2000/svg"><g><g><path d="m286.339 18.765v-11.265h-60.61v11.246c-46.657 13.18-80.848 56.068-80.848 106.943v33.831h222.236v-33.831c.001-50.85-34.156-93.721-80.778-106.924z" fill="#fcdd2e"/></g><g><path d="m144.882 125.689v3.526h222.236v-3.526c0-5.671-.448-11.235-1.267-16.678h-219.702c-.819 5.443-1.267 11.007-1.267 16.678z" fill="#f9c301"/></g><g><path d="m288.325 309.539 106.903 25.319c27.337 6.474 46.641 30.885 46.641 58.978v110.664h-185.869-185.87v-110.664c0-28.093 19.305-52.504 46.641-58.978l106.903-25.319z" fill="#97e4f9"/></g><g><path d="m413.585 342.587v161.913h28.285v-110.664c0-21.256-11.062-40.387-28.285-51.249z" fill="#0acefa"/></g><g><path d="m327.722 318.869v95.727l-71.722 23.233-71.722-23.233v-95.727l-53.538 12.681v172.95h125.26 125.26v-172.95z" fill="#fbe77b"/></g><g><path d="m362.067 327.004v177.496h19.193v-172.95z" fill="#fcdd2e"/></g><g><path d="m130.74 464.094v40.406h125.26 125.26v-40.406z" fill="#eaeaea"/></g><g><path d="m362.067 464.094h19.193v40.407h-19.193z" fill="#cbcbcb"/></g><g><path d="m223.345 376.89 32.655-32.655-32.325-34.696-39.258 9.298z" fill="#dcf5ff"/></g><g><path d="m288.655 376.89-32.655-32.655 32.325-34.696 39.258 9.298z" fill="#dcf5ff"/></g><g><path d="m223.675 309.539 32.325 34.696 32.325-34.696v-35.871h-64.65z" fill="#fcd0a3"/></g><g><path d="m223.675 295.639c10.153 3.438 21.025 5.304 32.325 5.304s22.172-1.865 32.325-5.304v-21.971h-64.65z" fill="#ffb983"/></g><g><path d="m175.187 159.52v40.406c0 44.632 36.181 80.813 80.813 80.813s80.813-36.181 80.813-80.813c0-14.725 0-40.406 0-40.406z" fill="#fcd0a3"/></g><g><path d="m308.528 159.52v40.407c0 39.804-28.786 72.863-66.671 79.554 4.595.811 9.315 1.259 14.142 1.259 44.632 0 80.813-36.181 80.813-80.813 0-14.725 0-25.682 0-40.407z" fill="#ffb983"/></g><g><path d="m134.78 129.215h242.439v30.305h-242.439z" fill="#fbe77b"/></g><g><path d="m338.062 129.215h39.157v30.305h-39.157z" fill="#fcdd2e"/></g><g><path d="m359.118 199.926h-22.305v-40.406h22.305c4.418 0 8 3.582 8 8v24.407c0 4.417-3.582 7.999-8 7.999z" fill="#fcd0a3"/></g><g><path d="m152.882 199.926h22.305v-40.406h-22.305c-4.418 0-8 3.582-8 8v24.407c0 4.417 3.582 7.999 8 7.999z" fill="#fcd0a3"/></g><path d="m441.87 428.384c4.143 0 7.5-3.358 7.5-7.5v-27.048c0-31.713-21.553-58.967-52.413-66.276l-101.132-23.952v-24.872c26.631-13.512 45.531-40.129 48.167-71.309h15.126c8.547 0 15.5-6.953 15.5-15.5v-24.407c0-.169-.02-.333-.025-.5h2.627c4.143 0 7.5-3.358 7.5-7.5v-30.305c0-4.142-3.357-7.5-7.5-7.5h-2.682c-1.663-49.29-34.106-92.801-80.698-108.477v-5.738c0-4.142-3.357-7.5-7.5-7.5h-60.61c-4.142 0-7.5 3.358-7.5 7.5v5.716c-46.634 15.656-79.104 59.176-80.767 108.499h-2.682c-4.142 0-7.5 3.358-7.5 7.5v30.305c0 4.142 3.358 7.5 7.5 7.5h2.627c-.005.167-.025.331-.025.5v24.407c0 8.547 6.953 15.5 15.5 15.5h15.126c2.635 31.18 21.536 57.797 48.166 71.309v24.872l-101.132 23.952c-30.86 7.309-52.413 34.563-52.413 66.276v27.048c0 4.142 3.358 7.5 7.5 7.5s7.5-3.358 7.5-7.5v-27.048c0-24.729 16.807-45.98 40.87-51.68l4.74-1.123v155.967h-45.61v-41c0-4.142-3.358-7.5-7.5-7.5s-7.5 3.358-7.5 7.5v48.5c0 4.142 3.358 7.5 7.5 7.5h371.74c4.143 0 7.5-3.358 7.5-7.5v-48.5c0-4.142-3.357-7.5-7.5-7.5s-7.5 3.358-7.5 7.5v41h-45.61v-155.966l4.74 1.123c24.063 5.699 40.87 26.951 40.87 51.68v27.048c0 4.141 3.358 7.499 7.5 7.499zm-185.87 1.562-64.222-20.804v-65.861l25.338 37.786c1.25 1.863 3.267 3.069 5.5 3.287.244.024.487.036.729.036 1.979 0 3.89-.784 5.303-2.197l27.352-27.351 27.351 27.351c1.414 1.414 3.324 2.197 5.304 2.197.242 0 .485-.012.729-.036 2.232-.218 4.25-1.424 5.5-3.288l25.337-37.785v65.86zm59.33-106.304-27.823 41.493-21.085-21.085 24.417-26.208zm44.288-156.122v24.407c0 .276-.225.5-.5.5h-14.805v-25.407h14.805c.276 0 .5.224.5.5zm-141.53-138.271v44.662c0 4.142 3.358 7.5 7.5 7.5s7.5-3.358 7.5-7.5l.141-58.911h45.61v58.912c0 4.142 3.357 7.5 7.5 7.5s7.5-3.358 7.5-7.5v-44.693c37.962 14.915 64.106 51.353 65.695 92.496h-31.999c-4.143 0-7.5 3.358-7.5 7.5s3.357 7.5 7.5 7.5h42.184v15.305h-227.439v-15.305h150.22c4.143 0 7.5-3.358 7.5-7.5s-3.357-7.5-7.5-7.5h-140.034c1.587-41.124 27.697-77.534 65.622-92.466zm-65.706 162.677v-24.406c0-.276.224-.5.5-.5h14.805v25.407h-14.805c-.276-.001-.5-.225-.5-.501zm30.305 8v-32.906h146.626v32.907c0 40.425-32.889 73.313-73.313 73.313s-73.313-32.889-73.313-73.314zm73.313 88.313c8.617 0 16.946-1.246 24.825-3.557v21.905l-24.825 26.645-24.825-26.646v-21.905c7.879 2.312 16.209 3.558 24.825 3.558zm-34.84 29.603 24.418 26.209-21.085 21.085-27.823-41.493zm-44.382 10.511v86.242c0 3.251 2.095 6.133 5.188 7.135l66.533 21.553v13.31h-110.259v-119.112zm-38.538 143.24h110.26v25.407h-110.26zm125.26 25.407v-25.407h110.26v25.407zm110.26-40.407h-110.26v-13.31l66.533-21.553c3.093-1.002 5.188-3.883 5.188-7.135v-86.242l38.538 9.128v119.112z"/></g></svg>